<svg width="87" height="67" viewBox="0 0 87 67" fill="none" xmlns="http://www.w3.org/2000/svg">
<path d="M86.5066 59.5435C86.4302 58.992 86.2568 58.4584 85.9944 57.9673C85.623 57.2272 85.1485 56.5433 84.5851 55.9359C77.9925 48.4067 72.1079 42.8257 71.4565 43.473C70.8051 44.1203 75.2581 50.2536 81.4745 57.432C80.2637 57.2031 78.6441 56.9078 76.5454 56.4446C74.4467 55.9814 71.7601 55.3233 68.5552 54.2612C64.6975 53.0158 60.9454 51.4672 57.3343 49.6299C55.0059 48.4506 52.741 47.1507 50.549 45.7356C47.973 44.1013 45.5121 42.2934 43.1835 40.3246C41.8443 39.1885 40.5711 37.9773 39.3698 36.697C39.4489 36.6713 39.5279 36.6456 39.607 36.6199C43.9263 36.0102 47.9724 34.1458 51.2404 31.2593C54.0183 28.837 56.0088 25.6437 56.9566 22.089C57.9044 18.5343 57.7662 14.7803 56.5597 11.3087C55.7735 8.85996 54.4674 6.60987 52.7302 4.71143C51.0219 2.78561 48.7996 1.38408 46.3217 0.669815C43.9603 0.0233111 41.4638 0.0457595 39.1119 0.734642C36.8492 1.42867 34.7648 2.60702 33.0046 4.18727C31.2445 5.76751 29.8509 7.71151 28.9215 9.88328C27.1857 14.2389 26.8045 19.0124 27.8276 23.5818C28.5994 27.2852 30.0467 30.8144 32.0974 33.9941C30.7168 33.8817 29.3443 33.6876 27.9871 33.4128C24.4824 32.687 21.0676 31.5847 17.8023 30.1252C14.799 28.8195 11.986 27.117 9.43878 25.0633C7.2346 23.2234 5.46364 20.9222 4.25121 18.3223C2.44034 14.4424 1.45023 10.2307 1.34246 5.9493C1.39546 4.36179 1.36274 2.77276 1.24446 1.1891C0.735088 2.70943 0.48901 4.30469 0.516781 5.90641C0.293037 10.3933 1.08219 14.8711 2.82601 19.0095C4.05306 21.9263 5.91154 24.5357 8.26864 26.6509C10.8948 28.9393 13.8246 30.8563 16.9759 32.3479C20.3675 33.9881 23.9283 35.2558 27.5958 36.1289C29.7938 36.6353 32.0354 36.9322 34.2905 37.0156C36.2167 39.4546 38.3837 41.6944 40.7589 43.7013C43.2385 45.8019 45.8659 47.7227 48.6209 49.4489C54.5327 53.2444 60.9543 56.1863 67.6954 58.1875C70.4308 58.9898 73.218 59.6062 76.0377 60.0325C77.7453 60.3033 79.468 60.471 81.1963 60.5346L81.9997 60.5473C81.8964 60.575 81.7945 60.6081 81.6947 60.6464C80.9176 61.0607 80.1858 61.4603 79.4878 61.8489C78.0845 62.6036 76.832 63.2844 75.7945 63.858C73.678 65.0311 72.4808 65.8433 72.6274 66.2562C72.7741 66.6691 74.2506 66.5627 76.6102 65.9454C77.9961 65.5764 79.3612 65.1329 80.6993 64.6168C81.4788 64.3635 82.2668 63.983 83.0884 63.6289C83.5219 63.4258 83.8837 63.2709 84.389 63.0196C84.6911 62.8672 84.9739 62.6792 85.2312 62.4597C85.6058 62.1561 85.908 61.773 86.1157 61.3384C86.3783 60.7794 86.4835 60.1601 86.4202 59.5467L86.5066 59.5435ZM39.0317 33.6578C38.3585 33.777 37.6894 33.8699 37.0129 33.9403C36.7307 33.5715 36.4445 33.2288 36.1849 32.8527C34.0047 29.8677 32.4726 26.4614 31.6863 22.8508C30.8237 19.1523 31.0871 15.2792 32.4427 11.7264C33.1448 10.0436 34.2025 8.531 35.5435 7.29189C36.8845 6.05278 38.4773 5.11637 40.2131 4.54656C41.9329 4.00857 43.7681 3.95971 45.5123 4.40548C47.3158 4.89843 48.9396 5.89524 50.1924 7.27858C51.5407 8.77057 52.5794 10.5143 53.2488 12.4094C53.9181 14.3046 54.2049 16.3137 54.0926 18.3213C53.7765 22.2753 51.9808 25.969 49.0623 28.6685C46.2841 31.282 42.8009 33.0282 39.0427 33.6916" fill="#D7D7D7"/>
</svg>
